<svg width="32" height="32" viewBox="0 0 32 32" fill="none" xmlns="http://www.w3.org/2000/svg">
<path fill-rule="evenodd" clip-rule="evenodd" d="M20.2465 9.8665L16.0012 14.1132L11.7532 9.86517C11.6262 9.74096 11.4554 9.67174 11.2777 9.67249C11.1 9.67324 10.9298 9.74389 10.8038 9.86917L9.87051 10.8038C9.80662 10.8651 9.75569 10.9386 9.72073 11.02C9.68577 11.1013 9.6675 11.1888 9.667 11.2774C9.66651 11.3659 9.68379 11.4536 9.71783 11.5354C9.75188 11.6171 9.80198 11.6912 9.86518 11.7532L14.1118 15.9985L9.86652 20.2465C9.74248 20.3737 9.6735 20.5446 9.6745 20.7223C9.67549 20.8999 9.74639 21.07 9.87185 21.1958L10.8052 22.1292C11.0798 22.4052 11.4932 22.3958 11.7545 22.1345L16.0025 17.8878L20.2478 22.1345C20.375 22.2585 20.546 22.3275 20.7236 22.3265C20.9013 22.3255 21.0714 22.2546 21.1972 22.1292L22.1319 21.1958C22.1957 21.1345 22.2465 21.0609 22.2813 20.9795C22.3162 20.8981 22.3343 20.8106 22.3347 20.722C22.3351 20.6335 22.3177 20.5458 22.2835 20.4641C22.2493 20.3824 22.1991 20.3084 22.1358 20.2465L17.8878 15.9985L22.1358 11.7532C22.2601 11.6262 22.3293 11.4553 22.3285 11.2777C22.3278 11.1 22.2571 10.9298 22.1319 10.8038L21.1985 9.8705C21.136 9.80647 21.0613 9.75547 20.9789 9.72045C20.8965 9.68544 20.808 9.6671 20.7185 9.6665C20.6308 9.66722 20.544 9.68526 20.4632 9.71958C20.3825 9.7539 20.3093 9.80383 20.2478 9.8665H20.2465Z" fill="#4B4B4B"/>
</svg>
